<?xml version="1.0" standalone="no"?>
<!DOCTYPE svg PUBLIC "-//W3C//DTD SVG 1.1//EN" "http://www.w3.org/Graphics/SVG/1.1/DTD/svg11.dtd" >
<svg xmlns="http://www.w3.org/2000/svg">
<metadata></metadata>
<defs>
<font id="foundation_sans_cd_ltitalic" horiz-adv-x="956" >
<font-face units-per-em="2048" ascent="1690" descent="-358" />
<missing-glyph horiz-adv-x="512" />
<glyph unicode="&#xfb01;" horiz-adv-x="884" d="M74 0l198 930h-114l14 82h117l37 170q23 107 73 153.5t144 46.5q40 0 100 -16l-16 -68q-59 5 -76 5q-56 0 -88 -33.5t-47 -108.5l-31 -149h147l-16 -82h-147l-197 -930h-98zM549 0l217 1012h96l-217 -1012h-96zM805 1200l35 166h96l-35 -166h-96z" />
<glyph unicode="&#xfb02;" horiz-adv-x="884" d="M74 0l198 930h-114l14 82h117l37 170q23 107 73 153.5t144 46.5q40 0 100 -16l-16 -68q-59 5 -76 5q-56 0 -88 -33.5t-47 -108.5l-31 -149h147l-16 -82h-147l-197 -930h-98zM549 0l291 1366h96l-291 -1366h-96z" />
<glyph unicode="&#xfb03;" horiz-adv-x="1357" d="M74 0l198 930h-114l14 82h117l37 170q23 107 73 153.5t144 46.5q40 0 100 -16l-16 -68q-59 5 -76 5q-56 0 -88 -33.5t-47 -108.5l-31 -149h377l37 170q23 107 73 153.5t144 46.5q40 0 100 -16l-16 -68q-59 5 -76 5q-56 0 -88 -33.5t-47 -108.5l-31 -149h148l-17 -82h-147 l-197 -930h-98l198 930h-376l-197 -930h-98zM1022 0l217 1012h96l-217 -1012h-96zM1278 1200l35 166h96l-35 -166h-96z" />
<glyph unicode="&#xfb04;" horiz-adv-x="1357" d="M74 0l198 930h-114l14 82h117l37 170q23 107 73 153.5t144 46.5q40 0 100 -16l-16 -68q-59 5 -76 5q-56 0 -88 -33.5t-47 -108.5l-31 -149h377l37 170q23 107 73 153.5t144 46.5q40 0 100 -16l-16 -68q-59 5 -76 5q-56 0 -88 -33.5t-47 -108.5l-31 -149h148l-17 -82h-147 l-197 -930h-98l198 930h-376l-197 -930h-98zM1022 0l291 1366h96l-291 -1366h-96z" />
<glyph horiz-adv-x="2048" />
<glyph horiz-adv-x="2048" />
<glyph unicode="&#xd;" horiz-adv-x="2048" />
<glyph unicode=" "  horiz-adv-x="512" />
<glyph unicode="&#x09;" horiz-adv-x="512" />
<glyph unicode="&#xa0;" horiz-adv-x="512" />
<glyph unicode="!" horiz-adv-x="544" d="M156 0l39 186h159l-41 -186h-157zM262 330l55 626l58 410h106l-51 -410l-127 -626h-41z" />
<glyph unicode="&#x22;" horiz-adv-x="573" d="M201 901l80 465h114l-116 -465h-78zM455 901l80 465h114l-117 -465h-77z" />
<glyph unicode="#" horiz-adv-x="1024" d="M92 420l29 98h162l98 330h-162l31 98h160l125 420h106l-125 -420h217l125 420h109l-127 -420h157l-28 -98h-158l-98 -330h159l-28 -98h-160l-125 -420h-106l125 420h-220l-125 -420h-106l125 420h-160zM387 518h219l99 330h-220z" />
<glyph unicode="$" d="M80 303q0 56 12 154h98q-10 -92 -10 -138q0 -104 37 -162.5t117 -80.5l121 573q-49 30 -52 33q-51 31 -76 51.5t-46 46.5q-66 81 -66 181q0 98 45.5 195.5t114.5 148.5q47 35 98 49.5t135 17.5l35 164h80l-35 -164q115 -23 168 -91.5t53 -193.5q0 -54 -10 -149h-96 q12 92 12 154q0 91 -34 137.5t-109 58.5l-123 -575q141 -86 188 -133q80 -80 80 -211q0 -100 -51.5 -191t-134.5 -137q-49 -27 -100.5 -38.5t-135.5 -14.5l-37 -168h-79l36 174q-110 20 -172.5 102t-62.5 207zM317 973q0 -92 52 -144q26 -26 106 -81l117 548 q-78 -4 -123.5 -28.5t-85.5 -83.5q-66 -95 -66 -211zM412 68q71 2 115 14t83 43q45 37 75 107.5t30 140.5q0 72 -40.5 124.5t-146.5 118.5z" />
<glyph unicode="%" horiz-adv-x="972" d="M106 0l760 1366h80l-760 -1366h-80zM178 954q0 56 21 153t45 150q50 115 159 115q63 0 100.5 -39t37.5 -108q0 -67 -24 -174t-50 -158q-52 -98 -150 -98q-139 0 -139 159zM244 952q0 -102 75 -102q70 0 109 115q17 49 33 135.5t16 126.5q0 41 -20.5 65.5t-55.5 24.5 q-37 0 -61.5 -25.5t-44.5 -85.5q-19 -52 -35 -133t-16 -121zM500 147q0 58 20.5 154.5t44.5 149.5q50 114 160 114q63 0 100 -39t37 -108q0 -67 -24 -173t-50 -157q-52 -98 -149 -98q-139 0 -139 157zM565 147q0 -102 76 -102q70 0 109 115q17 46 33 133t16 127 q0 41 -20.5 65.5t-55.5 24.5q-37 0 -62 -25.5t-45 -85.5q-19 -52 -35 -132t-16 -120z" />
<glyph unicode="&#x26;" horiz-adv-x="1091" d="M72 336q0 134 75 233t252 199q-96 161 -96 301q0 131 75 214t195 83q112 0 183 -74t71 -190q0 -137 -108 -228q-34 -30 -166 -106l-10.5 -6t-9.5 -5.5t-11 -6.5l250 -467q42 62 68 120.5t57 169.5h100q-30 -111 -71 -195t-109 -179l109 -199h-107l-71 133 q-172 -160 -330 -160q-151 0 -248.5 102.5t-97.5 260.5zM170 354q0 -123 75.5 -208t184.5 -85q69 0 133 34t144 112l-269 493q-150 -89 -209 -165.5t-59 -180.5zM401 1073q0 -121 80 -258q2 2 19 10q57 30 82 47q87 57 118 105t31 125q0 80 -45 131t-117 51 q-75 0 -121.5 -58t-46.5 -153z" />
<glyph unicode="'" horiz-adv-x="313" d="M184 854l88 512h127l-131 -512h-84z" />
<glyph unicode="(" horiz-adv-x="573" d="M104 393q0 309 150 606q55 106 120 192.5t173 194.5h84q-112 -115 -181 -222t-126 -255q-109 -287 -109 -575q0 -286 123 -574h-70q-89 182 -126.5 325.5t-37.5 307.5z" />
<glyph unicode=")" horiz-adv-x="573" d="M-33 -240q112 115 181 222.5t126 255.5q109 287 109 575q0 285 -123 573h70q90 -182 127 -325t37 -307q0 -310 -150 -607q-52 -104 -117 -190.5t-174 -196.5h-86z" />
<glyph unicode="*" horiz-adv-x="792" d="M248 1208l37 66l215 -133l45 248l71 -17l-57 -244l248 35l6 -76l-248 -18l107 -225l-68 -31l-94 231l-182 -172l-52 56l195 159z" />
<glyph unicode="+" d="M129 641l18 86h326l74 352h100l-76 -352h328l-18 -86h-328l-78 -362h-98l78 362h-326z" />
<glyph unicode="," horiz-adv-x="356" d="M-59 -270l14 67q44 15 63.5 47.5t40.5 120.5l9 35h-58l35 158h117l-43 -193q-26 -118 -62.5 -166.5t-115.5 -68.5z" />
<glyph unicode="-" horiz-adv-x="374" d="M-2 496l20 94h373l-20 -94h-373z" />
<glyph unicode="." horiz-adv-x="356" d="M10 0l37 168h115l-35 -168h-117z" />
<glyph unicode="/" horiz-adv-x="722" d="M-111 -240l813 1626h86l-808 -1626h-91z" />
<glyph unicode="0" d="M119 348q0 141 47.5 383.5t101.5 370.5q60 145 142.5 211.5t203.5 66.5q139 0 217 -91.5t78 -254.5q0 -168 -54 -434.5t-114 -388.5q-113 -238 -327 -238q-69 0 -130 26.5t-96 70.5q-69 89 -69 278zM219 344q0 -142 49 -213q25 -34 66 -54t86 -20q92 0 159.5 75 t116.5 235q40 127 77.5 347t37.5 322q0 120 -54 189t-147 69q-96 0 -158.5 -68.5t-115.5 -230.5q-43 -134 -80 -340t-37 -311z" />
<glyph unicode="1" d="M301 1057l16 78q140 2 222 56.5t125 174.5h96l-291 -1366h-96l237 1112q-84 -33 -138 -44t-128 -11h-43z" />
<glyph unicode="2" d="M33 0q20 118 49 198.5t84.5 153t133 131.5t202.5 131q97 56 142 88t79 66q47 47 74.5 120t27.5 152q0 118 -60.5 188t-162.5 70q-116 0 -184.5 -92.5t-83.5 -269.5h-103q29 233 119 340.5t254 107.5q152 0 238 -94t86 -260q0 -181 -107 -301q-48 -52 -97 -87.5 t-173 -106.5q-195 -111 -283.5 -210.5t-111.5 -236.5h598l-19 -88h-702z" />
<glyph unicode="3" d="M90 330q0 20 4 94h101q-5 -78 -5 -80q0 -134 64 -210.5t176 -76.5q123 0 203 104.5t80 264.5q0 121 -66 179t-207 61l17 82q37 -3 61 -3q59 0 116 22t91 58q38 41 62 106t24 128q0 107 -57.5 172t-151.5 65q-113 0 -180 -98q-40 -63 -70 -186h-98q25 106 47.5 161 t58.5 97q94 114 246 114q140 0 221.5 -85t81.5 -232q0 -139 -71 -246q-30 -44 -73 -71.5t-122 -55.5q45 -22 68.5 -41t46.5 -55q57 -83 57 -195q0 -91 -35 -178.5t-96 -150.5q-96 -101 -248 -101q-154 0 -250 99.5t-96 257.5z" />
<glyph unicode="4" d="M57 350l19 88l731 928h96l-196 -928h129l-19 -88h-129l-76 -350h-96l76 350h-535zM178 438h432l160 748z" />
<glyph unicode="5" d="M111 276q0 38 6 93h96q-6 -46 -6 -78q0 -103 60.5 -169.5t154.5 -66.5q75 0 136.5 42.5t98.5 111t56.5 148.5t19.5 161q0 132 -57.5 208.5t-157.5 76.5q-69 0 -125.5 -34t-120.5 -116h-94l211 713h549l-20 -88h-465l-150 -490q67 52 118 72.5t111 20.5 q135 0 218.5 -101.5t83.5 -265.5q0 -116 -35.5 -224t-100.5 -190q-105 -127 -278 -127q-135 0 -222 85.5t-87 217.5z" />
<glyph unicode="6" d="M123 365q0 159 42 370t99 344q70 159 158.5 232t210.5 73q132 0 209.5 -83t77.5 -224q0 -32 -2 -57h-99q4 46 4 53q0 104 -51.5 164.5t-142.5 60.5q-88 0 -153.5 -58.5t-117.5 -184.5q-43 -100 -92 -314q68 66 103 88q74 52 168 52q139 0 221 -101t82 -272 q0 -150 -51.5 -273t-142 -192.5t-200.5 -69.5q-152 0 -237.5 103.5t-85.5 288.5zM219 356q0 -141 59.5 -220t165.5 -79q114 0 189 101q48 68 76 162.5t28 189.5q0 136 -59 213.5t-162 77.5q-71 0 -129.5 -41.5t-94 -107.5t-54.5 -143t-19 -153z" />
<glyph unicode="7" d="M248 0q69 365 236 697t407 581h-596l20 88h691l-21 -88q-251 -277 -411 -601.5t-218 -676.5h-108z" />
<glyph unicode="8" d="M104 334q0 97 30.5 183.5t86.5 148.5q34 37 69.5 57t94.5 35q-121 86 -121 254q0 69 25.5 142t68.5 124q41 50 106 78t138 28t139 -28.5t103 -75.5q59 -78 59 -217q0 -256 -213 -356q75 -51 103 -107.5t28 -159.5q0 -212 -104 -339.5t-277 -127.5q-164 0 -250 92t-86 269 zM207 328q0 -127 61.5 -200t167.5 -73q122 0 202.5 117.5t80.5 294.5q0 107 -63 168t-175 61q-61 0 -112 -26t-84 -72q-36 -53 -57 -126t-21 -144zM373 991q0 -104 50 -161.5t142 -57.5q104 0 171 83t67 212q0 104 -55 167.5t-144 63.5q-100 0 -165.5 -87.5t-65.5 -219.5z " />
<glyph unicode="9" d="M104 258q0 34 2 57h95q-2 -18 -2 -47q0 -99 51 -155t143 -56q143 0 230 156q97 177 135 418q-63 -88 -126.5 -126t-148.5 -38q-135 0 -216 100.5t-81 266.5q0 239 113.5 394.5t286.5 155.5q148 0 232.5 -106t84.5 -289q0 -178 -51 -405t-123 -375q-118 -236 -342 -236 q-129 0 -206 77.5t-77 207.5zM289 838q0 -138 58.5 -214.5t162.5 -76.5q120 0 207.5 133t87.5 319q0 138 -59 217.5t-162 79.5q-59 0 -111.5 -30.5t-87.5 -85.5q-43 -70 -69.5 -163t-26.5 -179z" />
<glyph unicode=":" horiz-adv-x="382" d="M39 0l37 168h114l-34 -168h-117zM219 844l37 168h115l-37 -168h-115z" />
<glyph unicode=";" horiz-adv-x="382" d="M-33 -270l15 67q44 15 63.5 47.5t40.5 120.5l8 35h-57l35 158h116l-43 -193q-26 -118 -62.5 -166.5t-115.5 -68.5zM213 844l37 168h115l-35 -168h-117z" />
<glyph unicode="&#x3c;" horiz-adv-x="1024" d="M68 637v92l886 399v-102l-776 -344l776 -344v-102z" />
<glyph unicode="=" d="M123 520l18 86h711l-18 -86h-711zM174 766l19 86h710l-18 -86h-711z" />
<glyph unicode="&#x3e;" horiz-adv-x="1024" d="M137 236v102l776 344l-776 344v102l887 -399v-92z" />
<glyph unicode="?" horiz-adv-x="854" d="M219 0l41 186h158l-39 -186h-160zM227 1012q13 95 33.5 153.5t56.5 106.5q93 121 254 121q144 0 232 -87.5t88 -230.5q0 -113 -54 -190.5t-196 -169.5q-121 -79 -166.5 -155t-64.5 -230h-97q20 140 52 217.5t94 139t196 151.5q62 41 96.5 104.5t34.5 134.5 q0 102 -59.5 165t-155.5 63q-107 0 -165.5 -69.5t-83.5 -223.5h-95z" />
<glyph unicode="@" horiz-adv-x="1320" d="M121 559q0 216 94 406t252.5 302.5t339.5 112.5q214 0 349.5 -146t135.5 -378q0 -138 -54 -269.5t-142 -212.5t-181 -81q-52 0 -75 33.5t-29 99.5q-54 -74 -105.5 -107.5t-111.5 -33.5q-82 0 -132 70.5t-50 185.5q0 120 48.5 229t128.5 175.5t167 66.5q60 0 95 -35.5 t58 -120.5l41 131h90l-127 -422q-26 -86 -26 -116q0 -74 45 -74q63 0 124.5 70t100.5 182t39 227q0 197 -109.5 319.5t-287.5 122.5q-152 0 -285 -100.5t-212 -270.5t-79 -364q0 -193 86 -338q109 -182 348 -182q184 0 357 86l18 -76q-184 -94 -387 -94q-239 0 -381.5 163.5 t-142.5 438.5zM512 549q0 -83 29 -129.5t82 -46.5q51 0 97.5 42t78.5 117q23 52 41 132t18 131q0 55 -27.5 91.5t-70.5 39.5q-57 4 -115 -51t-95.5 -145t-37.5 -181z" />
<glyph unicode="A" horiz-adv-x="958" d="M-72 0l662 1366h125l110 -1366h-102l-29 410h-461l-192 -410h-113zM274 498h416l-53 792z" />
<glyph unicode="B" horiz-adv-x="976" d="M39 0l291 1366h237q169 0 246 -41q143 -78 143 -276q0 -140 -68.5 -227.5t-197.5 -110.5q174 -63 174 -279q0 -163 -72 -275t-196 -141q-70 -16 -260 -16h-297zM160 88h141q147 0 192.5 4t86.5 19q85 29 133.5 114t48.5 205q0 168 -107 215q-81 33 -274 33h-96zM305 766 h119q155 0 198 4.5t83 20.5q71 29 111 96t40 157q0 176 -145 218q-62 16 -189 16h-108z" />
<glyph unicode="C" horiz-adv-x="989" d="M111 381q0 199 52 423t132 372q124 225 360 225q168 0 260.5 -97t92.5 -274q0 -31 -4 -125h-107q4 82 4 111q0 145 -64.5 222t-185.5 77q-92 0 -167 -59t-124 -171q-63 -142 -105 -346.5t-42 -363.5q0 -157 63.5 -240.5t182.5 -83.5q129 0 214 100t132 306h100 q-31 -155 -82.5 -254.5t-136.5 -167.5q-85 -70 -258 -70q-149 0 -233 110.5t-84 305.5z" />
<glyph unicode="D" horiz-adv-x="1071" d="M39 0l291 1366h225q83 0 171.5 -17.5t133.5 -43.5q83 -44 120.5 -134.5t37.5 -244.5q0 -226 -56 -436t-147 -322q-78 -97 -175 -132.5t-282 -35.5h-319zM160 88h157q142 0 197 7.5t104 35.5q145 77 218 303q34 103 56.5 246.5t22.5 253.5q0 192 -83.5 268t-294.5 76h-123 z" />
<glyph unicode="E" horiz-adv-x="890" d="M39 0l291 1366h600l-21 -88h-495l-111 -522h496l-19 -88h-497l-123 -580h551l-19 -88h-653z" />
<glyph unicode="F" horiz-adv-x="763" d="M18 0l291 1366h572l-19 -88h-469l-112 -528h469l-19 -88h-469l-141 -662h-103z" />
<glyph unicode="G" horiz-adv-x="1071" d="M115 385q0 140 32 318.5t84 326.5q67 193 170.5 282t260.5 89q171 0 262.5 -99.5t87.5 -285.5l-2 -80h-101q2 29 2 72q0 307 -249 307q-120 0 -199.5 -78t-136.5 -250q-50 -148 -80.5 -319.5t-30.5 -300.5q0 -151 68 -233.5t192 -82.5q82 0 145.5 43t120.5 137 q42 66 69 144t52 200h-330l19 89h434l-141 -664h-103l33 156q-71 -102 -144 -146.5t-169 -44.5q-166 0 -256 109.5t-90 310.5z" />
<glyph unicode="H" horiz-adv-x="1081" d="M39 0l291 1366h102l-125 -588h578l125 588h102l-291 -1366h-102l147 690h-577l-148 -690h-102z" />
<glyph unicode="I" horiz-adv-x="428" d="M53 0l291 1366h102l-290 -1366h-103z" />
<glyph unicode="J" horiz-adv-x="778" d="M14 260q0 57 17 162h98q-18 -126 -18 -184q0 -86 46 -134.5t126 -48.5q119 0 172 111q27 56 53 180l215 1020h102l-217 -1024q-38 -181 -78 -246q-78 -125 -243 -125q-135 0 -204 73t-69 216z" />
<glyph unicode="K" horiz-adv-x="991" d="M39 0l291 1366h102l-139 -655l663 655h136l-547 -530l299 -836h-109l-268 754l-209 -201l-117 -553h-102z" />
<glyph unicode="L" horiz-adv-x="858" d="M39 0l291 1366h102l-272 -1278h551l-19 -88h-653z" />
<glyph unicode="M" horiz-adv-x="1366" d="M39 0l291 1366h176l110 -1182l596 1182h187l-291 -1366h-102l272 1284l-647 -1284h-99l-118 1284l-273 -1284h-102z" />
<glyph unicode="N" horiz-adv-x="1085" d="M39 0l291 1366h166l249 -1266l271 1266h102l-291 -1366h-161l-254 1270l-271 -1270h-102z" />
<glyph unicode="O" horiz-adv-x="1071" d="M117 391q0 162 40.5 358.5t104.5 346.5q67 158 163.5 231.5t236.5 73.5q184 0 274 -107t90 -327q0 -169 -44.5 -374.5t-111.5 -350.5q-66 -143 -160 -210t-229 -67q-179 0 -272 107q-50 57 -71 130.5t-21 188.5zM217 389q0 -166 66 -252t192 -86q109 0 185 63t131 199 q57 139 96 332t39 336q0 334 -262 334q-112 0 -187.5 -68.5t-134.5 -222.5q-52 -135 -88.5 -321.5t-36.5 -313.5z" />
<glyph unicode="P" horiz-adv-x="970" d="M39 0l291 1366h243q174 0 265 -39q72 -29 114.5 -114t42.5 -199t-43.5 -209.5t-120.5 -149.5q-108 -77 -317 -77q-13 0 -127 4q-11 0 -121 4l-125 -586h-102zM285 670q135 -6 204 -6q109 0 169.5 14t111.5 51q57 43 89 118t32 167q0 200 -154 250q-58 18 -237 18h-86z " />
<glyph unicode="Q" horiz-adv-x="1062" d="M117 375q0 174 43 385t108 354q67 146 162.5 216.5t226.5 70.5q189 0 280 -107.5t91 -328.5q0 -117 -24.5 -268t-65.5 -291q-32 -104 -59 -163t-80 -132l106 -105l-57 -65l-111 108q-64 -47 -121 -65.5t-135 -18.5q-156 0 -254 88q-60 54 -85 128.5t-25 193.5zM219 375 q0 -324 268 -324q55 0 95.5 13.5t91.5 48.5l-164 159l57 62l160 -156q49 81 77.5 150t57.5 180q66 258 66 465q0 173 -65 257.5t-199 84.5q-112 0 -187.5 -68.5t-134.5 -222.5q-54 -147 -88.5 -327t-34.5 -322z" />
<glyph unicode="R" horiz-adv-x="1067" d="M53 0l277 1366h272q146 0 250 -33q84 -29 130 -107.5t46 -191.5q0 -100 -38 -184.5t-101 -124.5q-32 -19 -119 -55q67 -32 96 -84t29 -140q0 -42 -8.5 -99t-40.5 -238l-2 -31q-2 -24 24 -78h-114q-17 50 -17 74q0 28 21 145q30 156 30 227q0 118 -75 162 q-30 18 -78.5 24.5t-151.5 6.5h-198l-127 -639h-105zM303 723l180 -2q127 -1 199.5 11.5t128.5 45.5q55 32 87 98.5t32 149.5q0 188 -156 234q-76 20 -274 20h-86z" />
<glyph unicode="S" horiz-adv-x="962" d="M55 336q0 45 2 76h101q-2 -25 -2 -60q0 -148 71 -224.5t207 -76.5q135 0 222 92.5t87 235.5q0 51 -15.5 97.5t-41.5 74.5q-25 27 -55.5 43.5t-132.5 56.5q-168 66 -230.5 136.5t-62.5 195.5q0 182 107 297t276 115q164 0 259 -91t95 -249q0 -27 -2 -43h-100q2 16 2 37 q0 121 -67.5 190.5t-184.5 69.5q-123 0 -204 -90t-81 -226q0 -95 50 -147t196 -109q169 -66 232 -138.5t63 -201.5q0 -193 -131 -321q-114 -111 -285 -111q-177 0 -276 98.5t-99 272.5z" />
<glyph unicode="T" horiz-adv-x="835" d="M205 1278l18 88h752l-19 -88h-299l-270 -1278h-102l270 1278h-350z" />
<glyph unicode="U" horiz-adv-x="1048" d="M106 289q0 96 31 248l176 829h103l-187 -881q-20 -103 -20 -172q0 -132 70 -196q72 -66 186 -66q171 0 256 148q22 38 35 79.5t35 139.5l200 948h103l-205 -971q-25 -117 -42 -168t-48 -98q-105 -164 -332 -164q-166 0 -263.5 87.5t-97.5 236.5z" />
<glyph unicode="V" horiz-adv-x="989" d="M219 1366h100l99 -1229l592 1229h108l-659 -1366h-127z" />
<glyph unicode="W" horiz-adv-x="1433" d="M219 1366h103l84 -1157l401 1157h125l96 -1178l397 1178h111l-473 -1366h-125l-88 1192l-412 -1192h-116z" />
<glyph unicode="X" horiz-adv-x="958" d="M-2 0l471 705l-270 661h108l232 -559l376 559h119l-448 -666l282 -700h-110l-244 596l-399 -596h-117z" />
<glyph unicode="Y" horiz-adv-x="919" d="M172 1366h107l266 -688l411 688h115l-487 -803l-119 -563h-103l119 563z" />
<glyph unicode="Z" horiz-adv-x="913" d="M31 0l18 88l770 1190h-602l21 88h706l-12 -88l-770 -1190h622l-18 -88h-735z" />
<glyph unicode="[" horiz-adv-x="540" d="M-23 -219l336 1585h310l-13 -59h-211l-309 -1457h211l-14 -69h-310z" />
<glyph unicode="\" horiz-adv-x="722" d="M289 1386h86l123 -1626h-92z" />
<glyph unicode="]" horiz-adv-x="540" d="M-59 -219l12 59h211l309 1456h-211l14 70h310l-336 -1585h-309z" />
<glyph unicode="^" horiz-adv-x="1024" d="M131 784l375 582h119l376 -582h-106l-332 510l-330 -510h-102z" />
<glyph unicode="_" horiz-adv-x="1024" d="M0 -158h1024v-75h-1024v75z" />
<glyph unicode="`" horiz-adv-x="1024" d="M420 1395h135l96 -254h-63z" />
<glyph unicode="a" horiz-adv-x="808" d="M23 219q0 90 27.5 165t76.5 116q35 28 80 45t143 35q122 24 162 35t63 28q56 43 56 162q0 158 -176 158q-184 0 -211 -211h-92q20 148 95.5 218t213.5 70q126 0 197 -56.5t71 -154.5q0 -11 -0.5 -18.5t-1 -13.5t-2.5 -17.5t-3.5 -19.5t-6 -31.5t-8.5 -42.5l-93 -461 q-16 -86 -16 -116q0 -26 11 -42t30 -16t68 12l-21 -63q-63 -18 -94 -18q-44 0 -63.5 26t-22.5 92q-69 -71 -123.5 -97t-132.5 -26q-109 0 -168 63t-59 179zM117 223q0 -82 43 -127t121 -45q105 0 170 78t100 248l39 184q-74 -28 -211 -55q-91 -19 -125 -32t-61 -40 q-76 -73 -76 -211z" />
<glyph unicode="b" horiz-adv-x="884" d="M20 0l291 1366h95l-95 -438q55 61 111 86.5t131 25.5q124 0 193 -83t69 -232q0 -132 -37 -294.5t-90 -262.5q-104 -195 -285 -195q-92 0 -157 47q-32 23 -52.5 52t-43.5 86l-33 -158h-97zM205 315q0 -116 53.5 -186t142.5 -70q74 0 135.5 59t102.5 169q29 78 53.5 216 t24.5 224q0 108 -49 172t-133 64q-179 0 -261 -261q-24 -73 -46.5 -201t-22.5 -186z" />
<glyph unicode="c" horiz-adv-x="806" d="M74 301q0 158 39 326t98 262q51 78 117.5 114.5t158.5 36.5q137 0 213 -77t76 -215q0 -39 -2 -68h-96q4 58 4 72q0 98 -49.5 152t-140.5 54q-80 0 -135.5 -45.5t-96.5 -144.5q-37 -91 -63.5 -229.5t-26.5 -243.5q0 -244 182 -244q104 0 163.5 68.5t90.5 224.5h96 q-29 -189 -116 -280t-236 -91q-139 0 -207.5 81t-68.5 247z" />
<glyph unicode="d" horiz-adv-x="882" d="M74 305q0 157 34 303.5t95 251.5q104 180 280 180q94 0 151.5 -44.5t92.5 -145.5l111 516h94l-289 -1366h-96l18 92q-63 -64 -120 -91.5t-126 -27.5q-118 0 -181.5 86t-63.5 246zM170 326q0 -265 184 -265q74 0 134.5 49.5t97.5 139.5q37 87 63.5 221.5t26.5 228.5 q0 112 -53.5 185t-135.5 73q-63 0 -118.5 -41.5t-92.5 -115.5q-45 -90 -75.5 -227t-30.5 -248z" />
<glyph unicode="e" horiz-adv-x="813" d="M72 313q0 137 35 291.5t90 259.5q91 178 282 178q132 0 201.5 -77.5t69.5 -225.5q0 -80 -27 -227h-539q-20 -146 -20 -217q0 -113 50 -175.5t142 -62.5q186 0 236 267h90q-40 -186 -118 -268.5t-214 -82.5q-278 0 -278 340zM199 594h444q16 96 16 154q0 106 -46 161.5 t-132 55.5q-115 0 -194 -123q-32 -51 -50.5 -103t-37.5 -145z" />
<glyph unicode="f" horiz-adv-x="473" d="M74 0l198 930h-114l14 82h117l37 170q23 107 73 153.5t144 46.5q40 0 100 -16l-16 -68q-59 5 -76 5q-56 0 -88 -33.5t-47 -108.5l-31 -149h147l-16 -82h-147l-197 -930h-98z" />
<glyph unicode="g" horiz-adv-x="870" d="M16 -82h97q5 -104 49 -150.5t139 -46.5q104 0 157 60.5t87 216.5l20 94q-75 -71 -124.5 -95t-118.5 -24q-120 0 -184 91t-64 260q0 142 34 288.5t91 245.5q49 87 122 133.5t160 46.5q95 0 153 -44t93 -144l35 162h96l-223 -1043q-24 -106 -43 -151t-60 -86 q-87 -90 -235 -90q-278 0 -281 276zM170 326q0 -265 184 -265q74 0 134.5 49t97.5 138t63.5 223t26.5 227q0 112 -53.5 185t-135.5 73q-63 0 -118.5 -41t-92.5 -116q-45 -90 -75.5 -226.5t-30.5 -246.5z" />
<glyph unicode="h" horiz-adv-x="878" d="M23 0l286 1366h101l-101 -479q71 82 139 117.5t154 35.5q100 0 155.5 -50.5t55.5 -141.5q0 -41 -14 -113l-156 -735h-96l155 735q15 66 15 99q0 57 -42 93t-108 36q-80 0 -151.5 -55t-141.5 -173l-155 -735h-96z" />
<glyph unicode="i" horiz-adv-x="358" d="M23 0l215 1012h96l-215 -1012h-96zM279 1200l34 166h97l-37 -166h-94z" />
<glyph unicode="j" horiz-adv-x="346" d="M-188 -334l16 76q27 -6 49 -6q64 0 88 71q6 15 29 123l231 1082h97l-230 -1082q-31 -144 -59 -192q-45 -80 -142 -80q-38 0 -79 8zM264 1200l37 166h94l-35 -166h-96z" />
<glyph unicode="k" horiz-adv-x="770" d="M23 0l290 1366h97l-174 -821l454 467h133l-387 -389l172 -623h-100l-150 545l-157 -160l-82 -385h-96z" />
<glyph unicode="l" horiz-adv-x="358" d="M23 0l290 1366h97l-291 -1366h-96z" />
<glyph unicode="m" horiz-adv-x="1368" d="M23 0l217 1012h96l-27 -119q67 79 132 112t153 33q85 0 130 -32t71 -113q66 78 133 112.5t155 34.5q103 0 164.5 -49.5t61.5 -132.5q0 -20 -19 -113l-157 -745h-97l160 745q12 55 12 82q0 60 -39 98t-102 38q-89 0 -174 -68q-33 -27 -53 -58t-45 -92l-166 -745h-97 l160 745q10 48 10 82q0 62 -41 99t-108 37q-81 0 -164 -64q-37 -31 -60.5 -63t-52.5 -91l-157 -745h-96z" />
<glyph unicode="n" horiz-adv-x="878" d="M23 0l215 1012h96l-27 -123q86 83 152.5 116t144.5 33q100 0 155.5 -52t55.5 -146q0 -33 -18 -117l-156 -723h-94l153 723q17 81 17 106q0 59 -39.5 95.5t-102.5 36.5q-73 0 -139.5 -45.5t-154.5 -155.5l-162 -760h-96z" />
<glyph unicode="o" horiz-adv-x="876" d="M72 330q0 128 33 271.5t85 246.5q98 192 306 192q151 0 229 -85t78 -250q0 -139 -38 -301t-95 -261q-95 -170 -297 -170q-301 0 -301 357zM170 315q0 -70 10.5 -112t36.5 -74q26 -35 69.5 -55.5t92.5 -20.5q71 0 129 42.5t92 119.5q43 99 74 246t31 254 q0 121 -54.5 183.5t-158.5 62.5q-147 0 -222 -166q-42 -94 -71 -233.5t-29 -246.5z" />
<glyph unicode="p" horiz-adv-x="882" d="M-51 -352l289 1364h96l-19 -92q63 64 120 92t126 28q119 0 182.5 -85.5t63.5 -245.5q0 -157 -34 -303.5t-95 -251.5q-105 -181 -281 -181q-94 0 -151 44.5t-92 144.5l-109 -514h-96zM205 313q0 -112 53 -185t135 -73q63 0 118.5 42t92.5 116q46 90 76.5 227t30.5 248 q0 268 -183 268q-75 0 -135.5 -48.5t-97.5 -139.5q-37 -90 -63.5 -225.5t-26.5 -229.5z" />
<glyph unicode="q" horiz-adv-x="884" d="M68 285q0 135 36.5 298.5t90.5 262.5q101 192 284 192q90 0 158 -47q32 -23 51.5 -50.5t44.5 -84.5l33 156h96l-291 -1364h-96l96 444q-57 -65 -112.5 -92t-130.5 -27q-122 0 -191 83t-69 229zM166 287q0 -108 49 -172t133 -64q175 0 260 260q23 74 46.5 202t23.5 183 q0 116 -54 186t-143 70q-73 0 -134.5 -58t-102.5 -167q-29 -78 -53.5 -216t-24.5 -224z" />
<glyph unicode="r" horiz-adv-x="583" d="M23 0l215 1012h96l-37 -176q36 54 62 82t57 47q77 49 178 49q27 0 47 -2l-18 -90q-35 6 -54 6q-115 0 -204.5 -101t-126.5 -272l-119 -555h-96z" />
<glyph unicode="s" horiz-adv-x="755" d="M16 293h95q0 -125 50.5 -181.5t164.5 -56.5q100 0 158.5 64.5t58.5 173.5q0 78 -47 119q-14 13 -33 24t-34.5 17.5t-68.5 27.5q-128 50 -177.5 105t-49.5 147q0 138 81.5 222.5t215.5 84.5q135 0 208 -71.5t73 -204.5v-19h-93q3 15 3 25q0 93 -50 143t-143 50 q-89 0 -145 -62t-56 -160q0 -63 39 -101t146 -81q132 -52 178.5 -104t46.5 -146q0 -137 -70 -233q-77 -103 -243 -103q-201 0 -273 133q-19 35 -26 75t-9 112z" />
<glyph unicode="t" horiz-adv-x="483" d="M68 117q0 46 14 112l149 701h-118l16 82h119l59 274h94l-55 -274h150l-17 -82h-149l-144 -658q-20 -94 -20 -120q0 -40 31 -65.5t82 -25.5q15 0 67 9l-16 -80q-49 -10 -80 -10q-83 0 -132.5 37t-49.5 100z" />
<glyph unicode="u" horiz-adv-x="880" d="M66 172q0 43 16 117l156 723h96l-154 -723q-16 -74 -16 -107q0 -60 39 -95.5t102 -35.5q73 0 140 46t155 155l162 760h96l-217 -1012h-94l26 123q-86 -83 -152.5 -116.5t-144.5 -33.5q-100 0 -155 52.5t-55 146.5z" />
<glyph unicode="v" horiz-adv-x="739" d="M125 1012h94l78 -854l410 854h100l-483 -1012h-105z" />
<glyph unicode="w" horiz-adv-x="1187" d="M123 1012h94l45 -838l363 838h106l37 -838l367 838h104l-446 -1012h-103l-45 811l-356 -811h-111z" />
<glyph unicode="x" horiz-adv-x="739" d="M-102 0l417 522l-200 490h104l164 -398l315 398h111l-385 -490l213 -522h-102l-185 434l-340 -434h-112z" />
<glyph unicode="y" horiz-adv-x="743" d="M-63 -330l20 82q55 -18 80 -18q50 0 88 35.5t70 111.5l47 111l-117 1020h96l96 -856l392 856h102q-45 -99 -226 -493t-280 -607q-43 -98 -60 -131t-40 -62q-57 -73 -162 -73q-43 0 -106 24z" />
<glyph unicode="z" horiz-adv-x="704" d="M-39 0l19 82l636 848h-456l16 82h582l-19 -82l-643 -848h463l-18 -82h-580z" />
<glyph unicode="{" horiz-adv-x="610" d="M109 -51q0 59 16 137l55 254q13 59 13 86q0 83 -74 109l20 96q60 20 91.5 62t50.5 126l61 283q31 145 98.5 204.5t200.5 59.5h37l-19 -90h-47q-32 0 -62.5 -12t-43.5 -31q-34 -39 -55 -143l-60 -279q-22 -100 -54.5 -150t-94.5 -81q63 -46 63 -127q0 -39 -14 -111 l-55 -262q-15 -72 -15 -105q0 -48 24 -69t79 -21h38l-20 -104h-43q-100 0 -145 40t-45 128z" />
<glyph unicode="|" horiz-adv-x="1024" d="M461 -342v1708h102v-1708h-102z" />
<glyph unicode="}" horiz-adv-x="610" d="M-55 -219l18 90h47q32 0 63 12t44 31q20 23 32.5 54t24.5 89l57 279q21 101 54 150.5t96 80.5q-64 47 -64 127q0 30 15 111l55 262q14 63 14 104q0 48 -23.5 69.5t-78.5 21.5h-39l21 104h43q100 0 145 -40t45 -128q0 -59 -16 -137l-56 -254q-12 -56 -12 -86 q0 -83 76 -109l-21 -96q-61 -20 -92.5 -61.5t-50.5 -126.5l-61 -283q-31 -145 -98.5 -204.5t-200.5 -59.5h-37z" />
<glyph unicode="~" horiz-adv-x="1366" d="M358 1257q57 109 121 159t146 50q44 0 96 -18.5t141 -65.5q90 -47 129.5 -61t81.5 -14q57 0 103.5 37.5t97.5 125.5l61 -45q-57 -109 -121 -160t-145 -51q-43 0 -94 18.5t-150 70.5q-81 42 -122.5 56.5t-81.5 14.5q-58 0 -104 -37t-97 -125z" />
<glyph unicode="&#xa1;" horiz-adv-x="544" d="M160 -229l53 409l125 627h41l-55 -627l-58 -409h-106zM287 950l41 187h157l-39 -187h-159z" />
<glyph unicode="&#xa2;" d="M170 455q0 250 86 485q72 192 215 248q48 17 123 20l35 164h80l-37 -172q202 -56 202 -287q0 -11 -4 -69h-94q4 62 4 76q0 153 -127 194l-182 -899q182 12 234 293h94q-25 -189 -114.5 -283.5t-240.5 -91.5l-34 -164h-80l35 164q-103 40 -149 115.5t-46 206.5zM264 455 q0 -102 39 -172q22 -38 80 -62l192 901q-80 -6 -129.5 -47t-89.5 -133q-31 -69 -61.5 -231.5t-30.5 -255.5z" />
<glyph unicode="&#xa3;" d="M43 57q223 246 223 516q0 33 -2 58h-151l16 78h125q-2 11 -4 23t-3 18.5t-1 9.5q-23 120 -23 180q0 204 110.5 324t297.5 120q161 0 249.5 -85t88.5 -242q0 -22 -4 -96h-103q4 70 4 96q0 115 -63 177t-180 62q-145 0 -222 -93t-77 -267q0 -82 24 -227h369l-17 -78h-346 q2 -29 2 -66q0 -118 -45 -221t-166 -264q90 37 183 37q52 0 149 -25q94 -22 148 -22q89 0 157 36l-20 -102q-78 -31 -154 -31q-77 0 -174 31q-103 33 -162 33q-101 0 -196 -66z" />
<glyph unicode="&#xa4;" horiz-adv-x="1161" d="M57 1212l74 76l193 -192q139 108 297 108q154 0 294 -106l191 188l74 -74l-191 -190q107 -138 107 -293q0 -152 -105 -291l193 -190l-74 -76l-192 193q-137 -107 -295 -107q-151 0 -295 107l-193 -193l-72 76l187 190q-105 138 -105 293q0 153 107 291zM260 729 q0 -148 106 -254t255 -106t254.5 105.5t105.5 256.5q0 148 -105 255.5t-251 107.5q-152 0 -258.5 -106.5t-106.5 -258.5z" />
<glyph unicode="&#xa5;" d="M188 561l17 78h295l-49 156h-220l17 77h178l-156 494h107l188 -612l297 612h115l-254 -494h195l-17 -77h-219l-78 -156h270l-16 -78h-272l-119 -561h-102l118 561h-295z" />
<glyph unicode="&#xa6;" horiz-adv-x="1024" d="M461 313h102v-655h-102v655zM461 694v672h102v-672h-102z" />
<glyph unicode="&#xa7;" horiz-adv-x="950" d="M76 2q0 32 6 100h88q-8 -63 -8 -84q0 -91 58 -144.5t155 -53.5q98 0 155.5 53.5t57.5 144.5q0 74 -37 123t-258 265q-77 77 -110 135t-33 118q0 51 23 102t60 83q44 37 152 86q-48 67 -64 105t-16 87q0 120 82 195.5t213 75.5q129 0 205 -68.5t76 -185.5q0 -18 -4 -76 h-101q2 23 2 63q0 88 -49 138.5t-135 50.5q-85 0 -141 -55t-56 -138q0 -33 3.5 -50t29 -52t62.5 -72.5t124 -122.5q139 -136 175 -189t36 -122q0 -182 -217 -287q39 -45 55.5 -90.5t16.5 -107.5q0 -132 -84 -209.5t-225 -77.5q-132 0 -214.5 71.5t-82.5 188.5zM240 666 q0 -43 25 -83t97 -112l193 -195q182 87 182 222q0 47 -19 79.5t-85 98.5l-203 203q-88 -41 -121 -70q-31 -28 -50 -66.5t-19 -76.5z" />
<glyph unicode="&#xa8;" horiz-adv-x="1024" d="M401 1188l29 135h119l-29 -135h-119zM719 1188l29 135h118l-28 -135h-119z" />
<glyph unicode="&#xa9;" horiz-adv-x="1382" d="M80 643q0 151 54.5 289.5t146.5 239t218.5 160t264.5 59.5q162 0 299 -89t216 -242.5t79 -336.5q0 -119 -34.5 -232.5t-98 -205.5t-146.5 -162.5t-185.5 -109t-209.5 -38.5q-166 0 -305 88t-219 241.5t-80 338.5zM156 645q0 -166 70 -305t192 -219t268 -80 q159 0 296.5 92.5t218.5 249.5t81 338q0 165 -69.5 304t-189.5 219.5t-263 80.5q-122 0 -234 -54t-193 -145.5t-129 -217.5t-48 -263zM457 522q0 113 29 238.5t75 206.5q73 129 211 129q99 0 154 -56.5t55 -158.5q0 -33 -4 -78h-80q2 51 2 69q0 75 -33 114.5t-96 39.5 q-99 0 -152 -119q-35 -76 -58 -188t-23 -201q0 -80 33 -123t94 -43q69 0 112 51.5t72 171.5h78q-17 -85 -38.5 -133t-60.5 -90q-35 -38 -76 -53.5t-104 -15.5q-89 0 -139.5 63.5t-50.5 175.5z" />
<glyph unicode="&#xaa;" horiz-adv-x="569" d="M113 686q0 71 29 122t81 73q7 3 12 4.5t10.5 3t19 4.5t27 5.5t46 9t65.5 12.5q51 9 70 32t19 74q0 82 -99 82q-57 0 -85.5 -28t-37.5 -95h-80q15 101 63 146t142 45q83 0 130.5 -36.5t47.5 -99.5q0 -11 -1 -18t-5.5 -25.5t-9.5 -40.5l-57 -270q-8 -39 -8 -65 q0 -23 16 -23q12 0 37 8q2 0 18 4l-20 -61q-41 -14 -66 -14q-54 0 -63 57q-66 -60 -150 -60q-72 0 -111.5 40.5t-39.5 113.5zM193 686q0 -41 23.5 -64.5t66.5 -23.5q61 0 98 42.5t59 137.5l21 90q-43 -13 -115 -26q-52 -10 -72 -17.5t-38 -21.5q-43 -40 -43 -117z" />
<glyph unicode="&#xab;" horiz-adv-x="778" d="M90 485l21 95l327 278l-24 -117l-250 -221l151 -237l-22 -105zM383 485l20 95l328 278l-24 -117l-248 -221l149 -237l-20 -105z" />
<glyph unicode="&#xac;" horiz-adv-x="1024" d="M27 467v90h886v-557h-100v467h-786z" />
<glyph unicode="&#xad;" horiz-adv-x="374" d="M-2 496l20 94h373l-20 -94h-373z" />
<glyph unicode="&#xae;" horiz-adv-x="1382" d="M80 643q0 151 54.5 289.5t146.5 239t218.5 160t264.5 59.5q162 0 299 -89t216 -242.5t79 -336.5q0 -119 -34.5 -232.5t-98 -205.5t-146.5 -162.5t-185.5 -109t-209.5 -38.5q-166 0 -305 88t-219 241.5t-80 338.5zM156 645q0 -166 70 -305t192 -219t268 -80 q159 0 296.5 92.5t218.5 249.5t81 338q0 165 -69.5 304t-189.5 219.5t-263 80.5q-122 0 -234 -54t-193 -145.5t-129 -217.5t-48 -263zM434 301l158 778h162q131 0 190.5 -46.5t59.5 -149.5q0 -145 -130 -203q56 -39 56 -123q0 -28 -21 -151q-8 -41 -8 -50q0 -8 19 -55h-89 q-12 37 -12 51t15.5 103.5t15.5 101.5q0 58 -39 80q-18 11 -35 13.5t-88 2.5h-102l-72 -352h-80zM600 723q39 -2 88 -2q123 0 176 31q62 37 62 129q0 97 -78 118q-40 11 -152 11h-39z" />
<glyph unicode="&#xaf;" horiz-adv-x="1024" d="M393 1210l19 86h450l-18 -86h-451z" />
<glyph unicode="&#xb0;" horiz-adv-x="763" d="M213 1110q0 115 86 199t205 84q121 0 207 -84t86 -201q0 -118 -85.5 -202.5t-205.5 -84.5q-123 0 -208 84.5t-85 204.5zM315 1110q0 -79 55.5 -133.5t135.5 -54.5q77 0 132.5 54.5t55.5 129.5q0 76 -55.5 131t-132.5 55q-78 0 -134.5 -54t-56.5 -128z" />
<glyph unicode="&#xb1;" d="M0 27l18 86h752l-18 -86h-752zM145 709l19 86h325l74 352h99l-74 -352h327l-18 -86h-328l-77 -363h-99l78 363h-326z" />
<glyph unicode="&#xb2;" horiz-adv-x="661" d="M117 547q25 144 83 218t214 161q102 56 135 86q59 59 59 151q0 65 -34.5 103.5t-92.5 38.5q-134 0 -155 -213h-84q20 152 76 218t165 66q98 0 154.5 -59t56.5 -160q0 -110 -69 -182q-31 -31 -62.5 -52.5t-107.5 -62.5q-114 -60 -166.5 -113.5t-69.5 -125.5h371l-17 -74 h-456z" />
<glyph unicode="&#xb3;" horiz-adv-x="661" d="M154 752q0 26 4 63h84q-4 -35 -4 -57q0 -73 36.5 -114.5t102.5 -41.5q71 0 117.5 57.5t46.5 145.5q0 69 -39 98.5t-135 30.5l16 72q25 -2 45 -2q77 0 125.5 48t48.5 124q0 58 -32.5 92.5t-86.5 34.5q-58 0 -91 -36.5t-56 -127.5h-84q17 66 23.5 84.5t21.5 46.5 q29 51 78.5 78.5t109.5 27.5q91 0 145 -52.5t54 -141.5q0 -165 -149 -221q41 -23 65.5 -67.5t24.5 -98.5q0 -112 -71 -188.5t-175 -76.5q-100 0 -162.5 62t-62.5 160z" />
<glyph unicode="&#xb4;" horiz-adv-x="1024" d="M535 1141l141 252h151l-227 -252h-65z" />
<glyph unicode="&#xb5;" d="M-16 -352l290 1364h97l-127 -588q-43 -198 -43 -242q0 -59 38.5 -95t102.5 -36q72 0 139.5 46t155.5 155l162 760h94l-215 -1012h-96l26 123q-83 -82 -149.5 -116t-141.5 -34q-54 0 -89.5 17t-63.5 55l-84 -397h-96z" />
<glyph unicode="&#xb6;" d="M217 981q0 93 38 177.5t113 142t171 63.5q14 2 170 2h264l-336 -1585h-102l317 1489h-131l-318 -1489h-102l191 887q-275 46 -275 313z" />
<glyph unicode="&#xb7;" horiz-adv-x="356" d="M102 428l37 168h115l-35 -168h-117z" />
<glyph unicode="&#xb8;" horiz-adv-x="1024" d="M244 -336l8 45q82 -26 127 -26q54 0 92.5 22.5t38.5 54.5q0 31 -27.5 50.5t-68.5 19.5q-35 0 -92 -25l-17 15l133 180h51l-92 -131q39 10 66 10q58 0 92.5 -29t34.5 -79q0 -61 -57.5 -100.5t-145.5 -39.5q-66 0 -143 33z" />
<glyph unicode="&#xb9;" horiz-adv-x="661" d="M283 1165l14 66q92 1 141.5 32t75.5 103h80l-184 -819h-82l145 643q-80 -27 -151 -27q-6 0 -39 2z" />
<glyph unicode="&#xba;" horiz-adv-x="612" d="M143 750q0 75 21 162t53 145q67 119 199 119q100 0 151 -53t51 -154q0 -83 -24 -178.5t-59 -155.5q-61 -105 -195 -105q-97 0 -147 55.5t-50 164.5zM225 739q0 -141 119 -141q87 0 129 88q27 56 45.5 140t18.5 147q0 133 -121 133q-85 0 -129 -90q-26 -54 -44 -134.5 t-18 -142.5z" />
<glyph unicode="&#xbb;" horiz-adv-x="778" d="M49 178l25 119l250 219l-152 238l23 104l202 -305l-20 -96zM342 178l27 119l247 219l-151 238l22 104l203 -305l-20 -96z" />
<glyph unicode="&#xbc;" horiz-adv-x="1525" d="M283 1165l14 66q92 1 141.5 32t75.5 103h80l-184 -819h-82l145 643q-80 -27 -151 -27q-6 0 -39 2zM383 0l760 1366h80l-760 -1366h-80zM881 205l16 67l457 547h78l-121 -540h80l-17 -74h-80l-47 -205h-82l47 205h-331zM993 279h236l86 383z" />
<glyph unicode="&#xbd;" horiz-adv-x="1525" d="M283 1165l14 66q92 1 141.5 32t75.5 103h80l-184 -819h-82l145 643q-80 -27 -151 -27q-6 0 -39 2zM383 0l760 1366h80l-760 -1366h-80zM866 0q25 145 84.5 220.5t214.5 160.5q104 57 135 88q60 57 60 149q0 65 -34.5 103.5t-92.5 38.5q-137 0 -158 -213h-84 q20 152 77 218t167 66q98 0 154.5 -58.5t56.5 -158.5q0 -111 -70 -184q-29 -31 -60 -51.5t-110 -63.5q-115 -61 -167.5 -114.5t-69.5 -126.5h372l-18 -74h-457z" />
<glyph unicode="&#xbe;" horiz-adv-x="1525" d="M154 752q0 26 4 63h84q-4 -35 -4 -57q0 -73 36.5 -114.5t102.5 -41.5q71 0 117.5 57.5t46.5 145.5q0 69 -39 98.5t-135 30.5l16 72q25 -2 45 -2q77 0 125.5 48t48.5 124q0 58 -32.5 92.5t-86.5 34.5q-58 0 -91 -36.5t-56 -127.5h-84q17 66 23.5 84.5t21.5 46.5 q29 51 78.5 78.5t109.5 27.5q91 0 145 -52.5t54 -141.5q0 -165 -149 -221q41 -23 65.5 -67.5t24.5 -98.5q0 -112 -71 -188.5t-175 -76.5q-100 0 -162.5 62t-62.5 160zM381 0l760 1366h80l-760 -1366h-80zM879 205l16 67l459 547h78l-123 -540h80l-17 -74h-80l-47 -205h-82 l47 205h-331zM991 279h236l88 383z" />
<glyph unicode="&#xbf;" horiz-adv-x="854" d="M33 88q0 112 53.5 189.5t196.5 171.5q121 79 166.5 155t64.5 230h96q-20 -140 -52 -217.5t-94 -139t-196 -151.5q-62 -41 -96.5 -105t-34.5 -135q0 -100 60 -162.5t155 -62.5q107 0 167 69t83 220h96q-15 -97 -35.5 -154.5t-56.5 -104.5q-90 -118 -254 -118 q-145 0 -232 86t-87 229zM506 975l39 188h160l-41 -188h-158z" />
<glyph unicode="&#xc0;" horiz-adv-x="958" d="M-72 0l662 1366h125l110 -1366h-102l-29 410h-461l-192 -410h-113zM274 498h416l-53 792zM455 1735h141l96 -252h-69z" />
<glyph unicode="&#xc1;" horiz-adv-x="958" d="M-72 0l662 1366h125l110 -1366h-102l-29 410h-461l-192 -410h-113zM274 498h416l-53 792zM645 1483l141 250h160l-227 -250h-74z" />
<glyph unicode="&#xc2;" horiz-adv-x="958" d="M-72 0l662 1366h125l110 -1366h-102l-29 410h-461l-192 -410h-113zM274 498h416l-53 792zM457 1483l184 250h160l98 -250h-74l-110 170l-185 -170h-73z" />
<glyph unicode="&#xc3;" horiz-adv-x="958" d="M-72 0l662 1366h125l110 -1366h-102l-29 410h-461l-192 -410h-113zM274 498h416l-53 792zM469 1516q40 165 147 165q30 0 50.5 -8.5t111.5 -60.5q31 -17 49 -17q44 0 62 84h65q-11 -77 -44.5 -119t-84.5 -42q-30 0 -56.5 11t-102.5 54q-32 19 -58 19q-46 0 -71 -86h-68z " />
<glyph unicode="&#xc4;" horiz-adv-x="958" d="M-72 0l662 1366h125l110 -1366h-102l-29 410h-461l-192 -410h-113zM274 498h416l-53 792zM481 1530l31 141h125l-31 -141h-125zM799 1530l30 141h125l-30 -141h-125z" />
<glyph unicode="&#xc5;" horiz-adv-x="958" d="M-72 0l662 1366h125l110 -1366h-102l-29 410h-461l-192 -410h-113zM274 498h416l-53 792zM524 1630q0 72 53 125t125 53q75 0 128 -53t53 -129q0 -72 -53.5 -124t-127.5 -52t-126 52.5t-52 127.5zM592 1630q0 -46 32 -79t78 -33q44 0 77.5 33t33.5 77q0 46 -32.5 79.5 t-78.5 33.5q-44 0 -77 -33.5t-33 -77.5z" />
<glyph unicode="&#xc6;" horiz-adv-x="1406" d="M-80 0l785 1366h749l-18 -88h-500l-111 -522h500l-18 -88h-500l-123 -580h543l-19 -88h-645l92 436h-372l-244 -436h-119zM332 524h342l160 754h-84z" />
<glyph unicode="&#xc7;" horiz-adv-x="989" d="M111 387q0 196 52 419t132 370q124 225 360 225q171 0 262 -97.5t91 -281.5q0 -31 -4 -117h-107q4 82 4 111q0 145 -64.5 222t-185.5 77q-92 0 -167 -59t-124 -171q-63 -142 -105 -346t-42 -362t63 -242t183 -84q129 0 214 100t132 306h100q-47 -243 -160 -366t-288 -122 l-66 -100q36 8 60 8q58 0 92.5 -29t34.5 -79q0 -63 -56 -102.5t-147 -39.5q-72 0 -146 35l9 43q68 -24 110 -24q55 0 90 23t35 60q0 31 -24.5 48.5t-69.5 17.5q-30 0 -55 -10l-11 20l90 129q-145 15 -218.5 120.5t-73.5 297.5z" />
<glyph unicode="&#xc8;" horiz-adv-x="890" d="M39 0l291 1366h600l-21 -88h-495l-111 -522h496l-19 -88h-497l-123 -580h551l-19 -88h-653zM469 1735h141l97 -252h-70z" />
<glyph unicode="&#xc9;" horiz-adv-x="890" d="M39 0l291 1366h600l-21 -88h-495l-111 -522h496l-19 -88h-497l-123 -580h551l-19 -88h-653zM598 1483l141 250h160l-227 -250h-74z" />
<glyph unicode="&#xca;" horiz-adv-x="890" d="M39 0l291 1366h600l-21 -88h-495l-111 -522h496l-19 -88h-497l-123 -580h551l-19 -88h-653zM438 1483l185 250h159l99 -250h-74l-111 170l-184 -170h-74z" />
<glyph unicode="&#xcb;" horiz-adv-x="890" d="M39 0l291 1366h600l-21 -88h-495l-111 -522h496l-19 -88h-497l-123 -580h551l-19 -88h-653zM461 1530l31 141h124l-30 -141h-125zM778 1530l31 141h125l-31 -141h-125z" />
<glyph unicode="&#xcc;" horiz-adv-x="428" d="M53 0l291 1366h102l-290 -1366h-103zM203 1735h141l96 -252h-69z" />
<glyph unicode="&#xcd;" horiz-adv-x="428" d="M53 0l291 1366h102l-290 -1366h-103zM379 1483l141 250h160l-227 -250h-74z" />
<glyph unicode="&#xce;" horiz-adv-x="428" d="M53 0l291 1366h102l-290 -1366h-103zM193 1483l184 250h160l98 -250h-74l-110 170l-185 -170h-73z" />
<glyph unicode="&#xcf;" horiz-adv-x="428" d="M53 0l291 1366h102l-290 -1366h-103zM283 1530l30 141h119l-31 -141h-118zM469 1530l31 141h118l-30 -141h-119z" />
<glyph unicode="&#xd0;" horiz-adv-x="1064" d="M35 0l145 682h-123l19 88h123l127 596h225q78 0 166.5 -15t134.5 -38q162 -76 162 -398q0 -218 -57 -427.5t-146 -319.5q-78 -97 -175 -132.5t-282 -35.5h-319zM156 88h157q142 0 197 7.5t104 35.5q144 76 217 303q34 103 57 246.5t23 253.5q0 192 -84 268t-295 76h-122 l-109 -508h326l-19 -88h-325z" />
<glyph unicode="&#xd1;" horiz-adv-x="1085" d="M39 0l291 1366h166l249 -1266l271 1266h102l-291 -1366h-161l-254 1270l-271 -1270h-102zM547 1516q40 165 147 165q30 0 50.5 -8.5t111.5 -60.5q31 -17 49 -17q44 0 62 84h65q-11 -77 -44.5 -119t-84.5 -42q-30 0 -57 11.5t-103 53.5q-32 19 -57 19q-47 0 -72 -86h-67z " />
<glyph unicode="&#xd2;" horiz-adv-x="1071" d="M117 391q0 162 40.5 358.5t104.5 346.5q67 158 163.5 231.5t236.5 73.5q184 0 274 -107t90 -327q0 -169 -44.5 -374.5t-111.5 -350.5q-66 -143 -160 -210t-229 -67q-179 0 -272 107q-50 57 -71 130.5t-21 188.5zM217 389q0 -166 66 -252t192 -86q109 0 185 63t131 199 q57 139 96 332t39 336q0 334 -262 334q-112 0 -187.5 -68.5t-134.5 -222.5q-52 -135 -88.5 -321.5t-36.5 -313.5zM506 1735h141l96 -252h-69z" />
<glyph unicode="&#xd3;" horiz-adv-x="1071" d="M117 391q0 162 40.5 358.5t104.5 346.5q67 158 163.5 231.5t236.5 73.5q184 0 274 -107t90 -327q0 -169 -44.5 -374.5t-111.5 -350.5q-66 -143 -160 -210t-229 -67q-179 0 -272 107q-50 57 -71 130.5t-21 188.5zM217 389q0 -166 66 -252t192 -86q109 0 185 63t131 199 q57 139 96 332t39 336q0 334 -262 334q-112 0 -187.5 -68.5t-134.5 -222.5q-52 -135 -88.5 -321.5t-36.5 -313.5zM633 1483l141 250h160l-227 -250h-74z" />
<glyph unicode="&#xd4;" horiz-adv-x="1071" d="M117 391q0 162 40.5 358.5t104.5 346.5q67 158 163.5 231.5t236.5 73.5q184 0 274 -107t90 -327q0 -169 -44.5 -374.5t-111.5 -350.5q-66 -143 -160 -210t-229 -67q-179 0 -272 107q-50 57 -71 130.5t-21 188.5zM217 389q0 -166 66 -252t192 -86q109 0 185 63t131 199 q57 139 96 332t39 336q0 334 -262 334q-112 0 -187.5 -68.5t-134.5 -222.5q-52 -135 -88.5 -321.5t-36.5 -313.5zM508 1483l184 250h160l98 -250h-73l-111 170l-184 -170h-74z" />
<glyph unicode="&#xd5;" horiz-adv-x="1071" d="M117 391q0 162 40.5 358.5t104.5 346.5q67 158 163.5 231.5t236.5 73.5q184 0 274 -107t90 -327q0 -169 -44.5 -374.5t-111.5 -350.5q-66 -143 -160 -210t-229 -67q-179 0 -272 107q-50 57 -71 130.5t-21 188.5zM217 389q0 -166 66 -252t192 -86q109 0 185 63t131 199 q57 139 96 332t39 336q0 334 -262 334q-112 0 -187.5 -68.5t-134.5 -222.5q-52 -135 -88.5 -321.5t-36.5 -313.5zM520 1516q40 165 148 165q30 0 50 -8.5t111 -60.5q31 -17 50 -17q43 0 61 84h66q-11 -77 -44.5 -119t-84.5 -42q-30 0 -57 11.5t-103 53.5q-32 19 -58 19 q-46 0 -71 -86h-68z" />
<glyph unicode="&#xd6;" horiz-adv-x="1071" d="M117 391q0 162 40.5 358.5t104.5 346.5q67 158 163.5 231.5t236.5 73.5q184 0 274 -107t90 -327q0 -169 -44.5 -374.5t-111.5 -350.5q-66 -143 -160 -210t-229 -67q-179 0 -272 107q-50 57 -71 130.5t-21 188.5zM217 389q0 -166 66 -252t192 -86q109 0 185 63t131 199 q57 139 96 332t39 336q0 334 -262 334q-112 0 -187.5 -68.5t-134.5 -222.5q-52 -135 -88.5 -321.5t-36.5 -313.5zM516 1530l31 141h125l-31 -141h-125zM834 1530l30 141h125l-31 -141h-124z" />
<glyph unicode="&#xd7;" d="M55 389l387 303l-235 299l78 62l233 -299l387 303l60 -78l-385 -303l237 -301l-78 -62l-237 301l-385 -303z" />
<glyph unicode="&#xd8;" horiz-adv-x="1021" d="M29 20l104 144q-35 101 -35 227q0 172 39 363.5t103 337.5q71 160 168 234.5t235 74.5q107 0 178 -34.5t121 -111.5l78 107l63 -47l-102 -139q23 -101 23 -218q0 -166 -44 -374t-108 -344q-66 -143 -160.5 -209t-232.5 -66q-98 0 -163.5 28t-119.5 93l-84 -113zM195 377 q0 -48 8 -119l680 922q-58 133 -240 133q-110 0 -184.5 -67t-134.5 -220q-57 -144 -93 -327t-36 -322zM233 168q46 -63 97 -90t125 -27q110 0 184 60.5t131 197.5q55 132 95 328.5t40 339.5q0 47 -4 92z" />
<glyph unicode="&#xd9;" horiz-adv-x="1048" d="M106 289q0 96 31 248l176 829h103l-187 -881q-20 -103 -20 -172q0 -132 70 -196q72 -66 186 -66q171 0 256 148q22 38 35 79.5t35 139.5l200 948h103l-205 -971q-25 -117 -42 -168t-48 -98q-105 -164 -332 -164q-166 0 -263.5 87.5t-97.5 236.5zM520 1735h142l96 -252 h-70z" />
<glyph unicode="&#xda;" horiz-adv-x="1048" d="M106 289q0 96 31 248l176 829h103l-187 -881q-20 -103 -20 -172q0 -132 70 -196q72 -66 186 -66q171 0 256 148q22 38 35 79.5t35 139.5l200 948h103l-205 -971q-25 -117 -42 -168t-48 -98q-105 -164 -332 -164q-166 0 -263.5 87.5t-97.5 236.5zM676 1483l141 250h160 l-227 -250h-74z" />
<glyph unicode="&#xdb;" horiz-adv-x="1048" d="M106 289q0 96 31 248l176 829h103l-187 -881q-20 -103 -20 -172q0 -132 70 -196q72 -66 186 -66q171 0 256 148q22 38 35 79.5t35 139.5l200 948h103l-205 -971q-25 -117 -42 -168t-48 -98q-105 -164 -332 -164q-166 0 -263.5 87.5t-97.5 236.5zM516 1483l184 250h160 l98 -250h-73l-111 170l-184 -170h-74z" />
<glyph unicode="&#xdc;" horiz-adv-x="1048" d="M106 289q0 96 31 248l176 829h103l-187 -881q-20 -103 -20 -172q0 -132 70 -196q72 -66 186 -66q171 0 256 148q22 38 35 79.5t35 139.5l200 948h103l-205 -971q-25 -117 -42 -168t-48 -98q-105 -164 -332 -164q-166 0 -263.5 87.5t-97.5 236.5zM532 1530l31 141h125 l-31 -141h-125zM850 1530l31 141h125l-31 -141h-125z" />
<glyph unicode="&#xdd;" horiz-adv-x="919" d="M172 1366h107l266 -688l411 688h115l-487 -803l-119 -563h-103l119 563zM606 1483l142 250h159l-227 -250h-74z" />
<glyph unicode="&#xde;" horiz-adv-x="970" d="M35 0l291 1366h102l-47 -219h143q175 0 258 -41q162 -79 162 -311q0 -435 -481 -435q-55 0 -248 7l-78 -367h-102zM233 453q157 -7 205 -7q108 0 169 14.5t112 51.5q57 43 89 117.5t32 167.5q0 200 -154 250q-62 18 -231 18q-51 0 -90 -2z" />
<glyph unicode="&#xdf;" horiz-adv-x="897" d="M23 0l215 1014q14 68 30.5 120t43.5 102.5t61.5 83.5t84.5 53t113 20q133 0 212 -81.5t79 -219.5q0 -160 -78 -256q-27 -33 -55 -50.5t-74 -29.5q72 -46 101.5 -107t29.5 -162q0 -66 -11.5 -135t-36.5 -136t-60.5 -119.5t-87.5 -84.5t-113 -32q-86 0 -168 71l19 84 q44 -38 76 -53.5t63 -15.5q46 0 84.5 32t63.5 81.5t42.5 112.5t25 124t7.5 116q0 65 -12.5 106t-44 65t-71 35t-105.5 18l14 65q47 -8 74 -8q107 0 157 61q29 37 47.5 100.5t18.5 129.5q0 97 -53.5 153t-147.5 56t-147.5 -74t-91.5 -256l-209 -983h-96z" />
<glyph unicode="&#xe0;" horiz-adv-x="808" d="M23 219q0 90 27.5 165t76.5 116q35 28 80 45t143 35q122 24 162 35t63 28q56 43 56 162q0 158 -176 158q-184 0 -211 -211h-92q20 148 95.5 218t213.5 70q126 0 197 -56.5t71 -154.5q0 -11 -0.5 -18.5t-1 -13.5t-2.5 -17.5t-3.5 -19.5t-6 -31.5t-8.5 -42.5l-93 -461 q-16 -86 -16 -116q0 -26 11 -42t30 -16t68 12l-21 -63q-63 -18 -94 -18q-44 0 -63.5 26t-22.5 92q-69 -71 -123.5 -97t-132.5 -26q-109 0 -168 63t-59 179zM117 223q0 -82 43 -127t121 -45q105 0 170 78t100 248l39 184q-74 -28 -211 -55q-91 -19 -125 -32t-61 -40 q-76 -73 -76 -211zM299 1395h135l96 -254h-63z" />
<glyph unicode="&#xe1;" horiz-adv-x="808" d="M23 219q0 90 27.5 165t76.5 116q35 28 80 45t143 35q122 24 162 35t63 28q56 43 56 162q0 158 -176 158q-184 0 -211 -211h-92q20 148 95.5 218t213.5 70q126 0 197 -56.5t71 -154.5q0 -11 -0.5 -18.5t-1 -13.5t-2.5 -17.5t-3.5 -19.5t-6 -31.5t-8.5 -42.5l-93 -461 q-16 -86 -16 -116q0 -26 11 -42t30 -16t68 12l-21 -63q-63 -18 -94 -18q-44 0 -63.5 26t-22.5 92q-69 -71 -123.5 -97t-132.5 -26q-109 0 -168 63t-59 179zM117 223q0 -82 43 -127t121 -45q105 0 170 78t100 248l39 184q-74 -28 -211 -55q-91 -19 -125 -32t-61 -40 q-76 -73 -76 -211zM455 1141l141 252h152l-228 -252h-65z" />
<glyph unicode="&#xe2;" horiz-adv-x="808" d="M23 219q0 90 27.5 165t76.5 116q35 28 80 45t143 35q122 24 162 35t63 28q56 43 56 162q0 158 -176 158q-184 0 -211 -211h-92q20 148 95.5 218t213.5 70q126 0 197 -56.5t71 -154.5q0 -11 -0.5 -18.5t-1 -13.5t-2.5 -17.5t-3.5 -19.5t-6 -31.5t-8.5 -42.5l-93 -461 q-16 -86 -16 -116q0 -26 11 -42t30 -16t68 12l-21 -63q-63 -18 -94 -18q-44 0 -63.5 26t-22.5 92q-69 -71 -123.5 -97t-132.5 -26q-109 0 -168 63t-59 179zM117 223q0 -82 43 -127t121 -45q105 0 170 78t100 248l39 184q-74 -28 -211 -55q-91 -19 -125 -32t-61 -40 q-76 -73 -76 -211zM317 1141l185 252h160l98 -252h-74l-111 172l-184 -172h-74z" />
<glyph unicode="&#xe3;" horiz-adv-x="808" d="M23 219q0 90 27.5 165t76.5 116q35 28 80 45t143 35q122 24 162 35t63 28q56 43 56 162q0 158 -176 158q-184 0 -211 -211h-92q20 148 95.5 218t213.5 70q126 0 197 -56.5t71 -154.5q0 -11 -0.5 -18.5t-1 -13.5t-2.5 -17.5t-3.5 -19.5t-6 -31.5t-8.5 -42.5l-93 -461 q-16 -86 -16 -116q0 -26 11 -42t30 -16t68 12l-21 -63q-63 -18 -94 -18q-44 0 -63.5 26t-22.5 92q-69 -71 -123.5 -97t-132.5 -26q-109 0 -168 63t-59 179zM117 223q0 -82 43 -127t121 -45q105 0 170 78t100 248l39 184q-74 -28 -211 -55q-91 -19 -125 -32t-61 -40 q-76 -73 -76 -211zM305 1174q40 165 148 165q30 0 50 -8.5t111 -60.5q31 -17 50 -17q43 0 61 86h66q-11 -77 -44.5 -120t-84.5 -43q-30 0 -57 11.5t-103 53.5q-32 19 -58 19q-46 0 -71 -86h-68z" />
<glyph unicode="&#xe4;" horiz-adv-x="808" d="M23 219q0 90 27.5 165t76.5 116q35 28 80 45t143 35q122 24 162 35t63 28q56 43 56 162q0 158 -176 158q-184 0 -211 -211h-92q20 148 95.5 218t213.5 70q126 0 197 -56.5t71 -154.5q0 -11 -0.5 -18.5t-1 -13.5t-2.5 -17.5t-3.5 -19.5t-6 -31.5t-8.5 -42.5l-93 -461 q-16 -86 -16 -116q0 -26 11 -42t30 -16t68 12l-21 -63q-63 -18 -94 -18q-44 0 -63.5 26t-22.5 92q-69 -71 -123.5 -97t-132.5 -26q-109 0 -168 63t-59 179zM117 223q0 -82 43 -127t121 -45q105 0 170 78t100 248l39 184q-74 -28 -211 -55q-91 -19 -125 -32t-61 -40 q-76 -73 -76 -211zM299 1188l29 135h118l-28 -135h-119zM616 1188l29 135h119l-29 -135h-119z" />
<glyph unicode="&#xe5;" horiz-adv-x="808" d="M23 219q0 90 27.5 165t76.5 116q35 28 80 45t143 35q122 24 162 35t63 28q56 43 56 162q0 158 -176 158q-184 0 -211 -211h-92q20 148 95.5 218t213.5 70q126 0 197 -56.5t71 -154.5q0 -11 -0.5 -18.5t-1 -13.5t-2.5 -17.5t-3.5 -19.5t-6 -31.5t-8.5 -42.5l-93 -461 q-16 -86 -16 -116q0 -26 11 -42t30 -16t68 12l-21 -63q-63 -18 -94 -18q-44 0 -63.5 26t-22.5 92q-69 -71 -123.5 -97t-132.5 -26q-109 0 -168 63t-59 179zM117 223q0 -82 43 -127t121 -45q105 0 170 78t100 248l39 184q-74 -28 -211 -55q-91 -19 -125 -32t-61 -40 q-76 -73 -76 -211zM356 1305q0 69 50.5 119.5t119.5 50.5q71 0 120.5 -50t49.5 -122q0 -68 -50.5 -118t-119.5 -50q-70 0 -120 50.5t-50 119.5zM420 1305q0 -43 30.5 -74t73.5 -31t75 31t32 72q0 44 -31.5 75t-75.5 31q-43 0 -73.5 -30.5t-30.5 -73.5z" />
<glyph unicode="&#xe6;" horiz-adv-x="1300" d="M23 211q0 93 28 169t76 118q33 27 82 45t139 35q123 24 160.5 34.5t64.5 30.5q56 44 56 160q0 160 -180 160q-106 0 -166 -82q-29 -44 -41 -129h-90q17 148 93 218t218 70q187 0 250 -129q53 69 110.5 99t139.5 30q135 0 205.5 -78t70.5 -227q0 -68 -29 -223h-538 q-23 -115 -23 -211q0 -119 51 -182.5t146 -63.5q92 0 148.5 65t84.5 202h90q-35 -181 -114.5 -265t-214.5 -84q-109 0 -181 60q-33 26 -50 57t-31 90q-56 -109 -130 -158t-184 -49q-241 0 -241 238zM117 225q0 -84 43 -130t121 -46q112 0 188 105q44 64 80 223l41 186 q-11 -5 -27 -9.5t-43.5 -11.5t-55 -13.5t-80.5 -19t-101 -24.5q-81 -20 -123.5 -88t-42.5 -172zM686 592h442q19 92 19 143q0 111 -46 170.5t-132 59.5q-120 0 -197 -125q-33 -52 -50.5 -103t-35.5 -145z" />
<glyph unicode="&#xe7;" horiz-adv-x="806" d="M74 297q0 162 39.5 330t99.5 260q97 153 274 153q138 0 214.5 -77t76.5 -215q0 -18 -4 -68h-94q4 58 4 76q0 95 -50.5 148.5t-139.5 53.5q-80 0 -136.5 -45.5t-97.5 -144.5q-38 -90 -64 -228t-26 -245q0 -244 182 -244q105 0 164.5 68t91.5 225h94q-25 -186 -112 -281.5 t-230 -95.5l-69 -98q41 10 65 10q58 0 92.5 -29t34.5 -79q0 -61 -56 -100.5t-144 -39.5q-65 0 -142 33v45q86 -26 129 -26q56 0 94.5 22.5t38.5 54.5q0 31 -27.5 50.5t-68.5 19.5q-35 0 -92 -25l-16 15l108 147q-119 12 -176 93t-57 237z" />
<glyph unicode="&#xe8;" horiz-adv-x="813" d="M72 313q0 137 35 291.5t90 259.5q91 178 282 178q132 0 201.5 -77.5t69.5 -225.5q0 -80 -27 -227h-539q-20 -146 -20 -217q0 -113 50 -175.5t142 -62.5q186 0 236 267h90q-40 -186 -118 -268.5t-214 -82.5q-278 0 -278 340zM199 594h444q16 96 16 154q0 106 -46 161.5 t-132 55.5q-115 0 -194 -123q-32 -51 -50.5 -103t-37.5 -145zM301 1395h135l96 -254h-63z" />
<glyph unicode="&#xe9;" horiz-adv-x="813" d="M72 313q0 137 35 291.5t90 259.5q91 178 282 178q132 0 201.5 -77.5t69.5 -225.5q0 -80 -27 -227h-539q-20 -146 -20 -217q0 -113 50 -175.5t142 -62.5q186 0 236 267h90q-40 -186 -118 -268.5t-214 -82.5q-278 0 -278 340zM199 594h444q16 96 16 154q0 106 -46 161.5 t-132 55.5q-115 0 -194 -123q-32 -51 -50.5 -103t-37.5 -145zM457 1141l141 252h152l-228 -252h-65z" />
<glyph unicode="&#xea;" horiz-adv-x="813" d="M72 313q0 137 35 291.5t90 259.5q91 178 282 178q132 0 201.5 -77.5t69.5 -225.5q0 -80 -27 -227h-539q-20 -146 -20 -217q0 -113 50 -175.5t142 -62.5q186 0 236 267h90q-40 -186 -118 -268.5t-214 -82.5q-278 0 -278 340zM199 594h444q16 96 16 154q0 106 -46 161.5 t-132 55.5q-115 0 -194 -123q-32 -51 -50.5 -103t-37.5 -145zM309 1141l185 252h159l99 -252h-74l-111 172l-184 -172h-74z" />
<glyph unicode="&#xeb;" horiz-adv-x="813" d="M72 313q0 137 35 291.5t90 259.5q91 178 282 178q132 0 201.5 -77.5t69.5 -225.5q0 -80 -27 -227h-539q-20 -146 -20 -217q0 -113 50 -175.5t142 -62.5q186 0 236 267h90q-40 -186 -118 -268.5t-214 -82.5q-278 0 -278 340zM199 594h444q16 96 16 154q0 106 -46 161.5 t-132 55.5q-115 0 -194 -123q-32 -51 -50.5 -103t-37.5 -145zM317 1188l29 135h119l-29 -135h-119zM635 1188l29 135h118l-28 -135h-119z" />
<glyph unicode="&#xec;" horiz-adv-x="358" d="M23 0l215 1012h96l-215 -1012h-96zM109 1395h135l96 -254h-64z" />
<glyph unicode="&#xed;" horiz-adv-x="358" d="M23 0l215 1012h96l-215 -1012h-96zM276 1141l142 252h151l-227 -252h-66z" />
<glyph unicode="&#xee;" horiz-adv-x="358" d="M23 0l215 1012h96l-215 -1012h-96zM84 1141l184 252h160l98 -252h-73l-111 172l-184 -172h-74z" />
<glyph unicode="&#xef;" horiz-adv-x="358" d="M23 0l215 1012h96l-215 -1012h-96zM172 1188l29 135h118l-28 -135h-119zM367 1188l28 135h119l-29 -135h-118z" />
<glyph unicode="&#xf0;" horiz-adv-x="876" d="M72 322q0 135 32 279.5t86 246.5q47 92 121.5 142t165.5 50q104 0 178 -41q-26 72 -90 226l-180 -78l-31 74l183 77q0 1 -39 105l73 35q3 -6 25 -58l22 -47l193 80l31 -74l-191 -79q81 -174 116.5 -304.5t35.5 -255.5q0 -136 -38 -297t-95 -260q-95 -170 -299 -170 q-147 0 -223 89t-76 260zM170 315q0 -70 10.5 -112t36.5 -74q26 -35 69.5 -55.5t92.5 -20.5q72 0 130.5 42.5t92.5 119.5q44 97 74.5 244.5t30.5 255.5q0 121 -54.5 183.5t-160.5 62.5q-147 0 -222 -166q-43 -93 -71.5 -232t-28.5 -248z" />
<glyph unicode="&#xf1;" horiz-adv-x="878" d="M23 0l215 1012h96l-27 -123q86 83 152.5 116t144.5 33q100 0 155.5 -52t55.5 -146q0 -33 -18 -117l-156 -723h-94l153 723q17 81 17 106q0 59 -39.5 95.5t-102.5 36.5q-73 0 -139.5 -45.5t-154.5 -155.5l-162 -760h-96zM377 1174q40 165 147 165q30 0 50.5 -8.5 t111.5 -60.5q31 -17 49 -17q44 0 62 86h65q-11 -77 -44.5 -120t-84.5 -43q-30 0 -57 11.5t-103 53.5q-32 19 -57 19q-47 0 -72 -86h-67z" />
<glyph unicode="&#xf2;" horiz-adv-x="876" d="M72 330q0 128 33 271.5t85 246.5q98 192 306 192q151 0 229 -85t78 -250q0 -139 -38 -301t-95 -261q-95 -170 -297 -170q-301 0 -301 357zM170 315q0 -70 10.5 -112t36.5 -74q26 -35 69.5 -55.5t92.5 -20.5q71 0 129 42.5t92 119.5q43 99 74 246t31 254 q0 121 -54.5 183.5t-158.5 62.5q-147 0 -222 -166q-42 -94 -71 -233.5t-29 -246.5zM332 1395h135l96 -254h-63z" />
<glyph unicode="&#xf3;" horiz-adv-x="876" d="M72 330q0 128 33 271.5t85 246.5q98 192 306 192q151 0 229 -85t78 -250q0 -139 -38 -301t-95 -261q-95 -170 -297 -170q-301 0 -301 357zM170 315q0 -70 10.5 -112t36.5 -74q26 -35 69.5 -55.5t92.5 -20.5q71 0 129 42.5t92 119.5q43 99 74 246t31 254 q0 121 -54.5 183.5t-158.5 62.5q-147 0 -222 -166q-42 -94 -71 -233.5t-29 -246.5zM479 1141l142 252h151l-227 -252h-66z" />
<glyph unicode="&#xf4;" horiz-adv-x="876" d="M72 330q0 128 33 271.5t85 246.5q98 192 306 192q151 0 229 -85t78 -250q0 -139 -38 -301t-95 -261q-95 -170 -297 -170q-301 0 -301 357zM170 315q0 -70 10.5 -112t36.5 -74q26 -35 69.5 -55.5t92.5 -20.5q71 0 129 42.5t92 119.5q43 99 74 246t31 254 q0 121 -54.5 183.5t-158.5 62.5q-147 0 -222 -166q-42 -94 -71 -233.5t-29 -246.5zM313 1141l185 252h159l99 -252h-74l-111 172l-184 -172h-74z" />
<glyph unicode="&#xf5;" horiz-adv-x="876" d="M72 330q0 128 33 271.5t85 246.5q98 192 306 192q151 0 229 -85t78 -250q0 -139 -38 -301t-95 -261q-95 -170 -297 -170q-301 0 -301 357zM170 315q0 -70 10.5 -112t36.5 -74q26 -35 69.5 -55.5t92.5 -20.5q71 0 129 42.5t92 119.5q43 99 74 246t31 254 q0 121 -54.5 183.5t-158.5 62.5q-147 0 -222 -166q-42 -94 -71 -233.5t-29 -246.5zM332 1174q40 165 147 165q30 0 50.5 -8.5t111.5 -60.5q31 -17 49 -17q44 0 62 86h65q-11 -77 -44.5 -120t-84.5 -43q-30 0 -57 11.5t-103 53.5q-32 19 -57 19q-47 0 -72 -86h-67z" />
<glyph unicode="&#xf6;" horiz-adv-x="876" d="M72 330q0 128 33 271.5t85 246.5q98 192 306 192q151 0 229 -85t78 -250q0 -139 -38 -301t-95 -261q-95 -170 -297 -170q-301 0 -301 357zM170 315q0 -70 10.5 -112t36.5 -74q26 -35 69.5 -55.5t92.5 -20.5q71 0 129 42.5t92 119.5q43 99 74 246t31 254 q0 121 -54.5 183.5t-158.5 62.5q-147 0 -222 -166q-42 -94 -71 -233.5t-29 -246.5zM354 1188l29 135h119l-29 -135h-119zM672 1188l28 135h119l-28 -135h-119z" />
<glyph unicode="&#xf7;" d="M129 643l18 86h752l-18 -86h-752zM362 399q0 40 29 68.5t70 28.5q38 0 66 -29t28 -68q0 -40 -28 -68t-68 -28q-38 0 -67.5 29t-29.5 67zM475 971q0 40 28.5 68t69.5 28q38 0 66.5 -29t28.5 -67q0 -40 -28.5 -68.5t-68.5 -28.5q-38 0 -67 29.5t-29 67.5z" />
<glyph unicode="&#xf8;" horiz-adv-x="841" d="M-12 -6l98 135q-37 75 -37 209q0 121 35 266t88 242q54 101 125.5 147.5t171.5 46.5q144 0 225 -75l78 108l66 -59l-93 -119q39 -94 39 -193q0 -136 -39 -300t-94 -259q-96 -170 -293 -170q-141 0 -223 82l-80 -108zM147 293q0 -16 7 -70l491 674q-39 35 -75.5 48 t-92.5 13q-152 0 -225 -163q-46 -102 -75.5 -242.5t-29.5 -259.5zM190 133q67 -82 168 -82q73 0 131 42t93 120q44 98 76 248.5t32 257.5q0 37 -10 86z" />
<glyph unicode="&#xf9;" horiz-adv-x="880" d="M66 172q0 43 16 117l156 723h96l-154 -723q-16 -74 -16 -107q0 -60 39 -95.5t102 -35.5q73 0 140 46t155 155l162 760h96l-217 -1012h-94l26 123q-86 -83 -152.5 -116.5t-144.5 -33.5q-100 0 -155 52.5t-55 146.5zM383 1395h135l96 -254h-63z" />
<glyph unicode="&#xfa;" horiz-adv-x="880" d="M66 172q0 43 16 117l156 723h96l-154 -723q-16 -74 -16 -107q0 -60 39 -95.5t102 -35.5q73 0 140 46t155 155l162 760h96l-217 -1012h-94l26 123q-86 -83 -152.5 -116.5t-144.5 -33.5q-100 0 -155 52.5t-55 146.5zM532 1141l142 252h151l-227 -252h-66z" />
<glyph unicode="&#xfb;" horiz-adv-x="880" d="M66 172q0 43 16 117l156 723h96l-154 -723q-16 -74 -16 -107q0 -60 39 -95.5t102 -35.5q73 0 140 46t155 155l162 760h96l-217 -1012h-94l26 123q-86 -83 -152.5 -116.5t-144.5 -33.5q-100 0 -155 52.5t-55 146.5zM352 1141l185 252h159l99 -252h-74l-111 172l-184 -172 h-74z" />
<glyph unicode="&#xfc;" horiz-adv-x="880" d="M66 172q0 43 16 117l156 723h96l-154 -723q-16 -74 -16 -107q0 -60 39 -95.5t102 -35.5q73 0 140 46t155 155l162 760h96l-217 -1012h-94l26 123q-86 -83 -152.5 -116.5t-144.5 -33.5q-100 0 -155 52.5t-55 146.5zM371 1188l28 135h119l-29 -135h-118zM688 1188l29 135 h119l-29 -135h-119z" />
<glyph unicode="&#xfd;" horiz-adv-x="743" d="M-63 -330l20 82q55 -18 80 -18q50 0 88 35.5t70 111.5l47 111l-117 1020h96l96 -856l392 856h102q-45 -99 -226 -493t-280 -607q-43 -98 -60 -131t-40 -62q-57 -73 -162 -73q-43 0 -106 24zM434 1141l141 252h152l-227 -252h-66z" />
<glyph unicode="&#xfe;" horiz-adv-x="882" d="M-51 -352l364 1718h97l-97 -446q63 64 121 92t127 28q119 0 182.5 -85.5t63.5 -245.5q0 -157 -34 -303.5t-95 -251.5q-105 -181 -281 -181q-94 0 -151 44.5t-92 144.5l-109 -514h-96zM205 313q0 -112 53 -185t135 -73q63 0 118.5 41.5t92.5 116.5q46 90 76.5 227 t30.5 248q0 264 -185 264q-73 0 -133.5 -49.5t-97.5 -138.5t-63.5 -223t-26.5 -228z" />
<glyph unicode="&#xff;" horiz-adv-x="743" d="M-63 -330l20 82q55 -18 80 -18q50 0 88 35.5t70 111.5l47 111l-117 1020h96l96 -856l392 856h102q-45 -99 -226 -493t-280 -607q-43 -98 -60 -131t-40 -62q-57 -73 -162 -73q-43 0 -106 24zM297 1188l29 135h118l-28 -135h-119zM614 1188l29 135h119l-29 -135h-119z" />
<glyph unicode="&#x152;" horiz-adv-x="1505" d="M111 373q0 165 42 369.5t105 349.5q69 155 162.5 229t220.5 74q107 0 170.5 -40t103.5 -134l31 145h600l-20 -88h-494l-112 -524h495l-8 -88h-506l-123 -578h545l-18 -88h-650l27 115q-66 -85 -123.5 -117.5t-142.5 -32.5q-142 0 -219 105q-86 119 -86 303zM215 395 q0 -164 58 -252t167 -88q87 0 146 51.5t102 165.5q58 148 112 408.5t54 390.5q0 115 -54 176.5t-155 61.5t-175 -67t-126 -206q-55 -146 -92 -329.5t-37 -311.5z" />
<glyph unicode="&#x153;" horiz-adv-x="1411" d="M80 324q0 137 32 277.5t87 244.5q52 100 126.5 147t178.5 47q111 0 184 -49q34 -22 55.5 -52t44.5 -89q60 102 127.5 146t163.5 44q129 0 201 -78.5t72 -220.5q0 -81 -29 -229h-535q-26 -138 -26 -225q0 -106 52.5 -169t141.5 -63q92 0 152 68.5t82 200.5h90 q-35 -183 -114 -267t-216 -84q-104 0 -166 45.5t-94 145.5q-57 -103 -127.5 -147t-179.5 -44q-156 0 -229.5 85.5t-73.5 265.5zM178 307q0 -68 10 -108t35 -74q56 -72 164 -72q72 0 130.5 43t90.5 119q40 91 72.5 250t32.5 260q0 109 -56.5 171t-154.5 62q-153 0 -226 -165 q-45 -102 -71.5 -233.5t-26.5 -252.5zM788 594h457q17 122 17 154q0 103 -49 160t-138 57q-218 0 -287 -371z" />
<glyph unicode="&#x178;" horiz-adv-x="919" d="M172 1366h107l266 -688l411 688h115l-487 -803l-119 -563h-103l119 563zM463 1530l31 141h124l-30 -141h-125zM780 1530l31 141h125l-31 -141h-125z" />
<glyph unicode="&#x2c6;" horiz-adv-x="1024" d="M375 1141l184 252h160l98 -252h-74l-110 172l-184 -172h-74z" />
<glyph unicode="&#x2dc;" horiz-adv-x="1024" d="M387 1174q40 165 148 165q30 0 50 -8.5t111 -60.5q31 -17 49 -17q44 0 62 86h65q-11 -77 -44.5 -120t-84.5 -43q-30 0 -56.5 11t-102.5 54q-32 19 -58 19q-46 0 -71 -86h-68z" />
<glyph unicode="&#x2000;" horiz-adv-x="904" />
<glyph unicode="&#x2001;" horiz-adv-x="1808" />
<glyph unicode="&#x2002;" horiz-adv-x="904" />
<glyph unicode="&#x2003;" horiz-adv-x="1808" />
<glyph unicode="&#x2004;" horiz-adv-x="602" />
<glyph unicode="&#x2005;" horiz-adv-x="452" />
<glyph unicode="&#x2006;" horiz-adv-x="301" />
<glyph unicode="&#x2007;" horiz-adv-x="301" />
<glyph unicode="&#x2008;" horiz-adv-x="226" />
<glyph unicode="&#x2009;" horiz-adv-x="361" />
<glyph unicode="&#x200a;" horiz-adv-x="100" />
<glyph unicode="&#x2010;" horiz-adv-x="374" d="M-2 496l20 94h373l-20 -94h-373z" />
<glyph unicode="&#x2011;" horiz-adv-x="374" d="M-2 496l20 94h373l-20 -94h-373z" />
<glyph unicode="&#x2012;" horiz-adv-x="374" d="M-2 496l20 94h373l-20 -94h-373z" />
<glyph unicode="&#x2013;" horiz-adv-x="878" d="M127 496l20 94h619l-21 -94h-618z" />
<glyph unicode="&#x2014;" horiz-adv-x="1103" d="M-4 496l20 94h1102l-18 -94h-1104z" />
<glyph unicode="&#x2018;" horiz-adv-x="368" d="M264 979l41 192q25 118 62 167.5t118 68.5l-16 -68q-45 -15 -67 -50t-37 -118l-7 -34h56l-35 -158h-115z" />
<glyph unicode="&#x2019;" horiz-adv-x="356" d="M197 938l14 68q44 15 63.5 47.5t40.5 120.5l9 34h-58l35 158h117l-43 -192q-27 -118 -63 -167t-115 -69z" />
<glyph unicode="&#x201a;" horiz-adv-x="356" d="M-59 -270l14 67q44 15 63.5 47.5t40.5 120.5l9 35h-58l35 158h117l-43 -193q-26 -118 -62.5 -166.5t-115.5 -68.5z" />
<glyph unicode="&#x201c;" horiz-adv-x="593" d="M213 950l41 193q25 119 62 168t118 69l-16 -69q-45 -15 -67.5 -50t-37.5 -118l-6 -35h55l-34 -158h-115zM438 950l41 193q25 119 62 168t116 69l-14 -69q-45 -15 -67 -50t-37 -118l-7 -35h56l-35 -158h-115z" />
<glyph unicode="&#x201d;" horiz-adv-x="593" d="M211 938l14 68q44 15 64 47.5t41 120.5l8 34h-57l34 158h117l-43 -192q-27 -118 -63 -167t-115 -69zM436 938l15 68q45 15 67 50t37 118l6 34h-55l35 158h114l-41 -192q-25 -117 -62 -166.5t-116 -69.5z" />
<glyph unicode="&#x201e;" horiz-adv-x="593" d="M-47 -270l14 67q44 15 64 47.5t41 120.5l8 35h-57l34 158h117l-43 -193q-26 -118 -62.5 -166.5t-115.5 -68.5zM178 -270l15 67q45 15 67 50t37 118l6 35h-55l35 158h114l-41 -193q-25 -117 -62 -166t-116 -69z" />
<glyph unicode="&#x2022;" horiz-adv-x="1366" d="M401 692q0 120 83.5 202.5t203.5 82.5q115 0 198 -84t83 -201t-83 -199.5t-200 -82.5q-118 0 -201.5 82.5t-83.5 199.5z" />
<glyph unicode="&#x2026;" horiz-adv-x="1069" d="M10 0l37 168h115l-35 -168h-117zM367 0l36 168h115l-35 -168h-116zM723 0l37 168h114l-34 -168h-117z" />
<glyph unicode="&#x202f;" horiz-adv-x="361" />
<glyph unicode="&#x2039;" horiz-adv-x="509" d="M115 485l20 95l328 278l-25 -117l-250 -221l152 -237l-23 -105z" />
<glyph unicode="&#x203a;" horiz-adv-x="485" d="M49 178l25 119l250 219l-152 238l23 104l202 -305l-20 -96z" />
<glyph unicode="&#x205f;" horiz-adv-x="452" />
<glyph unicode="&#x20ac;" horiz-adv-x="1196" d="M119 578l35 65h120l11 66h-142l33 65h121q49 230 139 402q121 225 361 225q167 0 259.5 -97t92.5 -274q0 -31 -4 -125h-105l2 111q3 144 -61.5 221.5t-185.5 77.5q-141 0 -233.5 -129t-155.5 -412h540l-33 -65h-522l-12 -66h502l-35 -65h-475q-17 -108 -17 -201 q0 -158 63 -242t183 -84q129 0 214 100t132 306h101q-31 -155 -83 -254.5t-137 -167.5q-85 -70 -258 -70q-149 0 -233 110.5t-84 307.5q0 89 14 195h-147z" />
<glyph unicode="&#x2122;" horiz-adv-x="1232" d="M184 1294l15 72h444l-16 -72h-166l-152 -706h-80l152 706h-197zM559 588l168 778h119l59 -627l318 627h125l-168 -778h-80l139 643l-328 -643h-71l-60 651l-141 -651h-80z" />
<glyph unicode="&#xe000;" horiz-adv-x="1013" d="M0 0v1014h1014v-1014h-1014z" />
</font>
</defs>
</svg>
